# xmcd
# 
# Track frame offsets:
#     150
#     15702
#     34650
#     48067
#     60737
#     79700
#     96555
#     113207
#     129500
#     150852
# 
# Disc length: 2334
# 
# Revision: 5
# Processed by: cddbd v1.5.2PL0 Copyright (c) Steve Scherf et al.
# Submitted via: fre:ac v1.0.31
# 
DISCID=72091c0a
DTITLE=Georgia Satellites - Georgia Satellites
DYEAR=1986
DGENRE=Rock
TTITLE0=Keep Your Hands to Yourself
TTITLE1=Railroads Steel
TTITLE2=Battleship Chains
TTITLE3=Red Light
TTITLE4=The Myth of Love
TTITLE5=Can't Stand the Pain
TTITLE6=Golden Light
TTITLE7=Over and Over
TTITLE8=Nights of Mystery
TTITLE9=Every Picture Tells a Story
EXTD=YEAR: 1986
EXTT0=
EXTT1=
EXTT2=
EXTT3=
EXTT4=
EXTT5=
EXTT6=
EXTT7=
EXTT8=
EXTT9=
PLAYORDER=
